<svg t="1562914721373" class="icon" viewBox="0 0 1024 1024" version="1.1" xmlns="http://www.w3.org/2000/svg" p-id="6363" height="200" width="200"><path d="M512 0C428.218182 0 344.436364 23.272727 269.963636 65.163636 204.8 9.309091 111.709091 0 111.709091 0c-9.309091 0-23.272727 4.654545-27.927273 13.963636-9.309091 9.309091-13.963636 18.618182-9.309091 32.581819 23.272727 102.4 18.618182 158.254545 18.618182 172.218181-60.509091 88.436364-93.090909 186.181818-93.090909 293.236364 0 283.927273 228.072727 512 512 512s512-228.072727 512-512S795.927273 0 512 0z m0 954.181818c-242.036364 0-442.181818-200.145455-442.181818-442.181818 0-97.745455 32.581818-186.181818 88.436363-265.309091v-4.654545c0-4.654545 4.654545-9.309091 4.654546-9.309091 0-4.654545 9.309091-55.854545-9.309091-148.945455 27.927273 9.309091 60.509091 23.272727 83.781818 46.545455 13.963636 13.963636 37.236364 13.963636 51.2 0 69.818182-41.890909 144.290909-60.509091 223.418182-60.509091 242.036364 0 442.181818 200.145455 442.181818 442.181818s-200.145455 442.181818-442.181818 442.181818z" p-id="6364" fill="#1296db"></path><path d="M493.381818 367.709091h79.127273v121.018182h-79.127273zM707.490909 367.709091h79.127273v121.018182h-79.127273z" p-id="6365" fill="#1296db"></path></svg>