<svg class="icon" viewBox="0 0 1024 1024" version="1.1" xmlns="http://www.w3.org/2000/svg" p-id="7526" height="128" width="128"><path d="M546.715663 283.425118c-191.022615 30.451546-214.988446 240.283552-190.836373 391.791198l3.15076 19.761066c51.838645-119.712499 122.484635-185.011714 224.058009-204.582445l19.951401 125.157511c3.15076 19.761066 26.063609 36.373419 52.413743 32.172747 13.174044-2.102894 25.299199-10.789741 33.604352-22.24463 65.394383-98.234325 206.590172-292.985868 206.590172-292.985868s-194.750519-141.195789-287.449781-214.226083c-11.45489-8.305153-25.677822-12.794397-38.854936-10.69355-26.346041 4.202719-42.956348 27.113521-42.575678 50.693566L546.715663 283.425118 546.715663 283.425118zM736.685295 758.11435 236.721423 758.11435 236.721423 163.815973l-42.451858 0c-23.581068 0-42.447764 18.866696-42.447764 42.447764l0 584.866564c0 23.581068 18.866696 42.447764 42.447764 42.447764L779.13613 833.578066c23.581068 0 42.447764-18.866696 42.447764-42.447764L821.583894 542.314423l-84.899622 124.044154L736.685295 758.11435 736.685295 758.11435z" p-id="7527"></path></svg>